<svg aria-hidden="true" style="position: absolute; width: 0; height: 0; overflow: hidden;" version="1.1" xmlns="http://www.w3.org/2000/svg" xmlns:xlink="http://www.w3.org/1999/xlink">
<defs>
<symbol id="x-close-btn" viewBox="0 0 32 32">
<path stroke-linejoin="round" stroke-linecap="round" stroke-miterlimit="4" stroke-width="3.4286" d="M24 8l-16 16M8 8l16 16"></path>
</symbol>
<symbol id="password-icon" viewBox="0 0 32 32">
<path stroke-linejoin="round" stroke-linecap="round" stroke-miterlimit="4" stroke-width="2.6667" d="M23.778 14.444v-4.667c0-4.296-3.482-7.778-7.778-7.778s-7.778 3.482-7.778 7.778v4.667M9.467 30h13.067c2.614 0 3.92 0 4.919-0.509 0.878-0.447 1.592-1.161 2.039-2.039 0.509-0.998 0.509-2.305 0.509-4.919v-0.622c0-2.614 0-3.92-0.509-4.919-0.447-0.878-1.161-1.592-2.039-2.039-0.998-0.509-2.305-0.509-4.919-0.509h-13.067c-2.614 0-3.92 0-4.919 0.509-0.878 0.447-1.592 1.161-2.039 2.039-0.509 0.998-0.509 2.305-0.509 4.919v0.622c0 2.614 0 3.92 0.509 4.919 0.447 0.878 1.161 1.592 2.039 2.039 0.998 0.509 2.305 0.509 4.919 0.509z"></path>
</symbol>
<symbol id="email-icon" viewBox="0 0 38 32">
<path stroke-linejoin="round" stroke-linecap="round" stroke-miterlimit="4" stroke-width="2.9091" d="M35.031 26.182l-11.273-10.182M14.061 16l-11.273 10.182M1.94 7.515l13.856 9.699c1.122 0.785 1.683 1.178 2.293 1.33 0.539 0.134 1.103 0.134 1.642 0 0.61-0.152 1.171-0.545 2.293-1.33l13.856-9.699M10.085 29.576h17.648c2.851 0 4.277 0 5.366-0.555 0.958-0.488 1.737-1.267 2.225-2.225 0.555-1.089 0.555-2.515 0.555-5.366v-10.861c0-2.851 0-4.277-0.555-5.366-0.488-0.958-1.267-1.737-2.225-2.225-1.089-0.555-2.515-0.555-5.366-0.555h-17.648c-2.851 0-4.277 0-5.366 0.555-0.958 0.488-1.737 1.267-2.225 2.225-0.555 1.089-0.555 2.515-0.555 5.366v10.861c0 2.851 0 4.277 0.555 5.366 0.488 0.958 1.267 1.737 2.225 2.225 1.089 0.555 2.515 0.555 5.366 0.555z"></path>
</symbol>
<symbol id="cart-icon" viewBox="0 0 32 32">
<path d="M25.333 9.333h-4v-1.333c0-1.415-0.562-2.771-1.562-3.771s-2.357-1.562-3.771-1.562c-1.414 0-2.771 0.562-3.771 1.562s-1.562 2.357-1.562 3.771v1.333h-4c-0.354 0-0.693 0.14-0.943 0.391s-0.391 0.589-0.391 0.943v14.667c0 1.061 0.421 2.078 1.172 2.828s1.768 1.172 2.828 1.172h13.333c1.061 0 2.078-0.421 2.828-1.172s1.172-1.768 1.172-2.828v-14.667c0-0.354-0.14-0.693-0.391-0.943s-0.589-0.391-0.943-0.391zM13.333 8c0-0.707 0.281-1.386 0.781-1.886s1.178-0.781 1.886-0.781c0.707 0 1.385 0.281 1.886 0.781s0.781 1.178 0.781 1.886v1.333h-5.333v-1.333zM24 25.333c0 0.354-0.14 0.693-0.391 0.943s-0.589 0.391-0.943 0.391h-13.333c-0.354 0-0.693-0.14-0.943-0.391s-0.391-0.589-0.391-0.943v-13.333h2.667v1.333c0 0.354 0.14 0.693 0.391 0.943s0.589 0.391 0.943 0.391c0.354 0 0.693-0.14 0.943-0.391s0.391-0.589 0.391-0.943v-1.333h5.333v1.333c0 0.354 0.14 0.693 0.39 0.943s0.589 0.391 0.943 0.391 0.693-0.14 0.943-0.391c0.25-0.25 0.391-0.589 0.391-0.943v-1.333h2.667v13.333z"></path>
</symbol>
<symbol id="burger-menu" viewBox="0 0 32 32">
<path stroke-linejoin="round" stroke-linecap="round" stroke-miterlimit="4" stroke-width="2.2857" d="M22.667 13.333h-18.667"></path>
<path stroke-linejoin="round" stroke-linecap="round" stroke-miterlimit="4" stroke-width="2.2857" d="M28 8h-24"></path>
<path stroke-linejoin="round" stroke-linecap="round" stroke-miterlimit="4" stroke-width="2.2857" d="M28 18.667h-24"></path>
<path stroke-linejoin="round" stroke-linecap="round" stroke-miterlimit="4" stroke-width="2.2857" d="M22.667 24h-18.667"></path>
</symbol>
<symbol id="arrow-down-slider" viewBox="0 0 32 32">
<path d="M15.053 17.867c0.124 0.125 0.271 0.224 0.434 0.292s0.337 0.103 0.513 0.103c0.176 0 0.35-0.035 0.513-0.103s0.31-0.167 0.434-0.292l6.107-6.12c0.124-0.125 0.271-0.224 0.434-0.292s0.337-0.103 0.513-0.103c0.176 0 0.35 0.035 0.513 0.103s0.31 0.167 0.434 0.292c0.248 0.25 0.388 0.588 0.388 0.94s-0.139 0.69-0.388 0.94l-6.12 6.12c-0.75 0.749-1.767 1.17-2.827 1.17s-2.077-0.421-2.827-1.17l-6.12-6.12c-0.246-0.248-0.385-0.584-0.387-0.933-0.001-0.175 0.033-0.349 0.099-0.512s0.164-0.31 0.288-0.435c0.124-0.125 0.271-0.224 0.434-0.292s0.337-0.103 0.513-0.103c0.176 0 0.35 0.035 0.513 0.103s0.31 0.167 0.434 0.292l6.107 6.12z"></path>
</symbol>
<symbol id="arrow-down-slider-icon" viewBox="0 0 32 32">
<path fill="#fff" style="fill: var(--color1, #fff)" d="M16 32c-8.837 0-16-7.163-16-16s7.163-16 16-16c8.837 0 16 7.163 16 16s-7.163 16-16 16z"></path>
<path fill="#4f2ee8" style="fill: var(--color2, #4f2ee8)" d="M15.452 17.081c0.072 0.072 0.157 0.13 0.251 0.169s0.195 0.059 0.297 0.059c0.102 0 0.203-0.020 0.297-0.059s0.179-0.097 0.251-0.169l3.535-3.543c0.072-0.072 0.157-0.13 0.251-0.169s0.195-0.059 0.297-0.059c0.102 0 0.203 0.020 0.297 0.059s0.179 0.097 0.251 0.169c0.144 0.145 0.224 0.34 0.224 0.544s-0.081 0.4-0.224 0.544l-3.543 3.543c-0.434 0.434-1.023 0.677-1.636 0.677s-1.202-0.244-1.636-0.677l-3.543-3.543c-0.143-0.144-0.223-0.338-0.224-0.54-0.001-0.102 0.019-0.202 0.057-0.296s0.095-0.18 0.167-0.252c0.072-0.072 0.157-0.13 0.251-0.169s0.195-0.059 0.297-0.059 0.203 0.020 0.297 0.059c0.094 0.039 0.179 0.097 0.251 0.169l3.536 3.543z"></path>
</symbol>
<symbol id="arrow-down-user-menu-open" viewBox="0 0 28 32">
<path d="M5.898 12h16.513l-7.423 8.391c-0.221 0.25-0.521 0.39-0.834 0.39s-0.613-0.14-0.834-0.39l-7.422-8.391z"></path>
</symbol>
<symbol id="arrow-left-previous-page" viewBox="0 0 32 32">
<path d="M14.133 16.946c-0.125-0.124-0.224-0.271-0.292-0.434s-0.103-0.337-0.103-0.513 0.035-0.35 0.103-0.513c0.068-0.163 0.167-0.31 0.292-0.434l6.12-6.107c0.125-0.124 0.224-0.271 0.292-0.434s0.103-0.337 0.103-0.513c0-0.176-0.035-0.35-0.103-0.513s-0.167-0.31-0.292-0.434c-0.25-0.248-0.588-0.388-0.94-0.388s-0.69 0.139-0.94 0.388l-6.12 6.12c-0.749 0.75-1.17 1.767-1.17 2.827s0.421 2.077 1.17 2.827l6.12 6.12c0.248 0.246 0.584 0.385 0.933 0.387 0.175 0.001 0.349-0.033 0.512-0.099s0.31-0.164 0.435-0.288c0.125-0.124 0.224-0.271 0.292-0.434s0.103-0.337 0.103-0.513c0-0.176-0.035-0.35-0.103-0.513s-0.167-0.31-0.292-0.434l-6.12-6.107z"></path>
</symbol>
<symbol id="arrow-left-previous-page-icon" viewBox="0 0 32 32">
<path fill="#111" style="fill: var(--color3, #111)" d="M32 16c0 8.837-7.163 16-16 16s-16-7.163-16-16c0-8.837 7.163-16 16-16s16 7.163 16 16z"></path>
<path fill="#b4afaf" style="fill: var(--color4, #b4afaf)" d="M14.982 16.516c-0.068-0.068-0.122-0.148-0.159-0.237s-0.056-0.184-0.056-0.28 0.019-0.191 0.056-0.28c0.037-0.089 0.091-0.169 0.159-0.237l3.338-3.331c0.068-0.068 0.122-0.148 0.159-0.237s0.056-0.184 0.056-0.28c0-0.096-0.019-0.191-0.056-0.28s-0.091-0.169-0.159-0.237c-0.136-0.135-0.321-0.211-0.513-0.211s-0.376 0.076-0.513 0.211l-3.338 3.338c-0.409 0.409-0.638 0.964-0.638 1.542s0.229 1.133 0.638 1.542l3.338 3.338c0.136 0.134 0.318 0.21 0.509 0.211 0.096 0.001 0.191-0.018 0.279-0.054s0.169-0.090 0.237-0.157c0.068-0.068 0.122-0.148 0.159-0.237s0.056-0.184 0.056-0.28c0-0.096-0.019-0.191-0.056-0.28s-0.091-0.169-0.159-0.237l-3.338-3.331z"></path>
</symbol>
<symbol id="arrow-right-log-out" viewBox="0 0 32 32">
<path stroke-linejoin="round" stroke-linecap="round" stroke-miterlimit="4" stroke-width="3.2" d="M5.333 16h21.333M26.667 16l-8-8M26.667 16l-8 8"></path>
</symbol>
<symbol id="arrow-right-next-page" viewBox="0 0 32 32">
<path d="M17.867 16.946c0.125-0.124 0.224-0.271 0.292-0.434s0.103-0.337 0.103-0.513-0.035-0.35-0.103-0.513c-0.068-0.162-0.167-0.31-0.292-0.434l-6.12-6.107c-0.125-0.124-0.224-0.271-0.292-0.434s-0.103-0.337-0.103-0.513c0-0.176 0.035-0.35 0.103-0.513s0.167-0.31 0.292-0.434c0.25-0.248 0.588-0.388 0.94-0.388s0.69 0.139 0.94 0.388l6.12 6.12c0.749 0.75 1.17 1.767 1.17 2.827s-0.421 2.077-1.17 2.827l-6.12 6.12c-0.248 0.246-0.584 0.385-0.933 0.387-0.175 0.001-0.349-0.033-0.512-0.099s-0.31-0.164-0.435-0.288c-0.125-0.124-0.224-0.271-0.292-0.434s-0.103-0.337-0.103-0.513c0-0.176 0.035-0.35 0.103-0.513s0.167-0.31 0.292-0.434l6.12-6.107z"></path>
</symbol>
<symbol id="arrow-right-next-page-icon" viewBox="0 0 32 32">
<path fill="#eac645" style="fill: var(--color5, #eac645); stroke: var(--color6, #000)" stroke="#000" stroke-linejoin="miter" stroke-linecap="butt" stroke-miterlimit="4" stroke-width="0.7273" d="M31.636 16c0 8.636-7.001 15.636-15.636 15.636s-15.636-7.001-15.636-15.636c0-8.636 7.001-15.636 15.636-15.636s15.636 7.001 15.636 15.636z"></path>
<path fill="#000" style="fill: var(--color6, #000)" d="M17.018 16.516c0.068-0.068 0.122-0.148 0.159-0.237s0.056-0.184 0.056-0.28-0.019-0.191-0.056-0.28c-0.037-0.089-0.091-0.169-0.159-0.237l-3.338-3.331c-0.068-0.068-0.122-0.148-0.159-0.237s-0.056-0.184-0.056-0.28c0-0.096 0.019-0.191 0.056-0.28s0.091-0.169 0.159-0.237c0.136-0.135 0.321-0.211 0.513-0.211s0.376 0.076 0.513 0.211l3.338 3.338c0.409 0.409 0.638 0.964 0.638 1.542s-0.229 1.133-0.638 1.542l-3.338 3.338c-0.136 0.134-0.318 0.21-0.509 0.211-0.096 0.001-0.191-0.018-0.279-0.054s-0.169-0.090-0.237-0.157c-0.068-0.068-0.122-0.148-0.159-0.237s-0.056-0.184-0.056-0.28c0-0.096 0.019-0.191 0.056-0.28s0.091-0.169 0.159-0.237l3.338-3.331z"></path>
</symbol>
<symbol id="arrow-right-sign-up" viewBox="0 0 32 32">
<path stroke-linejoin="round" stroke-linecap="round" stroke-miterlimit="4" stroke-width="3.2" d="M5.333 16h21.333M26.667 16l-8-8M26.667 16l-8 8"></path>
</symbol>
<symbol id="arrow-up-scroll-up" viewBox="0 0 32 32">
<path d="M4.5 19.6l11.2-11.233c0.133-0.133 0.278-0.228 0.433-0.283s0.322-0.084 0.5-0.084 0.344 0.028 0.5 0.084c0.156 0.055 0.3 0.149 0.433 0.283l11.233 11.233c0.311 0.311 0.467 0.7 0.467 1.167s-0.167 0.867-0.5 1.2c-0.333 0.333-0.722 0.5-1.167 0.5s-0.833-0.167-1.167-0.5l-9.8-9.8-9.8 9.8c-0.311 0.311-0.694 0.467-1.149 0.467s-0.851-0.167-1.184-0.5-0.5-0.722-0.5-1.167c0-0.444 0.167-0.833 0.5-1.167z"></path>
</symbol>
<symbol id="arrow-up-scroll-up-icon" viewBox="0 0 32 32">
<path fill="#4f2ee8" style="fill: var(--color2, #4f2ee8)" opacity="0.3" d="M32 16c0 8.837-7.163 16-16 16s-16-7.163-16-16c0-8.837 7.163-16 16-16s16 7.163 16 16z"></path>
<path fill="#4f2ee8" style="fill: var(--color2, #4f2ee8)" d="M29.5 16c0 7.456-6.044 13.5-13.5 13.5s-13.5-6.044-13.5-13.5c0-7.456 6.044-13.5 13.5-13.5s13.5 6.044 13.5 13.5z"></path>
<path fill="#fff" style="fill: var(--color1, #fff)" d="M11.688 17.35l4.2-4.213c0.050-0.050 0.104-0.085 0.163-0.106s0.121-0.031 0.188-0.031 0.129 0.011 0.188 0.031c0.058 0.021 0.113 0.056 0.163 0.106l4.212 4.213c0.117 0.117 0.175 0.262 0.175 0.438s-0.063 0.325-0.188 0.45c-0.125 0.125-0.271 0.188-0.438 0.188s-0.313-0.063-0.438-0.188l-3.675-3.675-3.675 3.675c-0.117 0.117-0.26 0.175-0.431 0.175s-0.319-0.063-0.444-0.188-0.188-0.271-0.188-0.438c0-0.167 0.063-0.313 0.188-0.438z"></path>
</symbol>
<symbol id="arrow-up-slider-up" viewBox="0 0 32 32">
<path d="M15.053 14.133c0.124-0.125 0.271-0.224 0.434-0.292s0.337-0.103 0.513-0.103c0.176 0 0.35 0.035 0.513 0.103s0.31 0.167 0.434 0.292l6.107 6.12c0.124 0.125 0.271 0.224 0.434 0.292s0.337 0.103 0.513 0.103 0.35-0.035 0.513-0.103c0.162-0.068 0.31-0.167 0.434-0.292 0.248-0.25 0.388-0.588 0.388-0.94s-0.14-0.69-0.388-0.94l-6.12-6.12c-0.75-0.749-1.767-1.17-2.827-1.17s-2.077 0.421-2.827 1.17l-6.12 6.12c-0.246 0.248-0.385 0.584-0.387 0.933-0.001 0.176 0.033 0.35 0.099 0.512s0.164 0.31 0.288 0.435c0.124 0.125 0.271 0.224 0.434 0.292s0.337 0.103 0.513 0.103 0.35-0.035 0.513-0.103c0.162-0.068 0.31-0.167 0.434-0.292l6.107-6.12z"></path>
</symbol>
<symbol id="arrow-up-slider-up-icon" viewBox="0 0 32 32">
<path fill="#fff" style="fill: var(--color1, #fff)" d="M16 0c-8.837 0-16 7.163-16 16s7.163 16 16 16c8.837 0 16-7.163 16-16s-7.163-16-16-16z"></path>
<path fill="#4f2ee8" style="fill: var(--color2, #4f2ee8)" d="M15.452 14.919c0.072-0.072 0.157-0.13 0.251-0.169s0.195-0.059 0.297-0.059c0.102 0 0.203 0.020 0.297 0.059s0.179 0.097 0.251 0.169l3.535 3.543c0.072 0.072 0.157 0.13 0.251 0.169s0.195 0.059 0.297 0.059 0.203-0.020 0.297-0.059c0.094-0.039 0.179-0.097 0.251-0.169 0.144-0.145 0.224-0.34 0.224-0.544s-0.081-0.4-0.224-0.544l-3.543-3.543c-0.434-0.434-1.023-0.677-1.636-0.677s-1.202 0.244-1.637 0.677l-3.543 3.543c-0.143 0.144-0.223 0.338-0.224 0.54-0.001 0.102 0.019 0.202 0.057 0.296s0.095 0.18 0.167 0.252c0.072 0.072 0.157 0.13 0.251 0.169s0.195 0.059 0.297 0.059c0.102 0 0.203-0.020 0.297-0.059s0.179-0.097 0.251-0.169l3.535-3.543z"></path>
</symbol>
<symbol id="book" viewBox="0 0 34 32">
<path d="M32.716 8.869c-0.716-0.375-1.463-0.688-2.24-0.953v18.801c-1.737-0.641-3.52-0.969-5.333-0.969-2.895 0-5.76 0.844-8.381 2.469v-18.911c-2.469-1.454-5.318-2.313-8.381-2.313-2.728 0-5.303 0.688-7.573 1.875-0.503 0.25-0.808 0.797-0.808 1.375v18.88c0 0.906 0.716 1.547 1.524 1.547 0.244 0 0.488-0.063 0.731-0.188 1.844-0.985 3.916-1.61 6.126-1.61 3.154 0 6.065 1.282 8.381 3.126 2.316-1.844 5.227-3.126 8.381-3.126 2.21 0 4.282 0.625 6.126 1.625 0.244 0.125 0.488 0.188 0.731 0.188 0.792 0 1.524-0.641 1.524-1.547v-18.895c0-0.578-0.305-1.125-0.808-1.375zM13.714 26.717c-1.737-0.641-3.52-0.969-5.333-0.969s-3.596 0.328-5.333 0.969v-15.488c1.691-0.735 3.474-1.11 5.333-1.11 1.829 0 3.642 0.391 5.333 1.125v15.473zM27.429 1.524l-7.619 7.814v14.847l7.619-7.033v-15.629z"></path>
</symbol>
<symbol id="cart-purple-round" viewBox="0 0 32 32">
<path fill="#4f2ee8" style="fill: var(--color2, #4f2ee8)" d="M32 16c0 8.837-7.163 16-16 16s-16-7.163-16-16c0-8.837 7.163-16 16-16s16 7.163 16 16z"></path>
<path fill="none" stroke="#fff" style="stroke: var(--color1, #fff)" stroke-linejoin="round" stroke-linecap="round" stroke-miterlimit="4" stroke-width="1.4118" d="M13.882 9.647h4.235M9.647 11.765h12.706M20.941 11.765l-0.495 7.425c-0.074 1.114-0.111 1.671-0.352 2.093-0.212 0.372-0.531 0.671-0.917 0.857-0.437 0.212-0.996 0.212-2.112 0.212h-2.131c-1.117 0-1.675 0-2.112-0.212-0.385-0.187-0.705-0.486-0.917-0.857-0.241-0.422-0.278-0.979-0.352-2.093l-0.495-7.425M14.588 14.941v3.529M17.412 14.941v3.529"></path>
</symbol>
<symbol id="double-arrow-left-icon" viewBox="0 0 32 32">
<path fill="#111" style="fill: var(--color3, #111)" d="M32 16c0 8.837-7.163 16-16 16s-16-7.163-16-16c0-8.837 7.163-16 16-16s16 7.163 16 16z"></path>
<path fill="#b4afaf" style="fill: var(--color4, #b4afaf)" d="M12.073 16.516c-0.068-0.068-0.122-0.148-0.159-0.237s-0.056-0.184-0.056-0.28c0-0.096 0.019-0.191 0.056-0.28s0.091-0.169 0.159-0.237l3.338-3.331c0.068-0.068 0.122-0.148 0.159-0.237s0.056-0.184 0.056-0.28c0-0.096-0.019-0.191-0.056-0.28s-0.091-0.169-0.159-0.237c-0.136-0.135-0.321-0.211-0.513-0.211s-0.376 0.076-0.513 0.211l-3.338 3.338c-0.409 0.409-0.638 0.964-0.638 1.542s0.23 1.133 0.638 1.542l3.338 3.338c0.136 0.134 0.318 0.21 0.509 0.211 0.096 0.001 0.191-0.018 0.279-0.054s0.169-0.090 0.237-0.157c0.068-0.068 0.122-0.148 0.159-0.237s0.056-0.184 0.056-0.28c0-0.096-0.019-0.191-0.056-0.28s-0.091-0.169-0.159-0.237l-3.338-3.331z"></path>
<path fill="#b4afaf" style="fill: var(--color4, #b4afaf)" d="M17.164 16.516c-0.068-0.068-0.122-0.148-0.159-0.237s-0.056-0.184-0.056-0.28c0-0.096 0.019-0.191 0.056-0.28s0.091-0.169 0.159-0.237l3.338-3.331c0.068-0.068 0.122-0.148 0.159-0.237s0.056-0.184 0.056-0.28c0-0.096-0.019-0.191-0.056-0.28s-0.091-0.169-0.159-0.237c-0.136-0.135-0.321-0.211-0.513-0.211s-0.376 0.076-0.513 0.211l-3.338 3.338c-0.409 0.409-0.638 0.964-0.638 1.542s0.23 1.133 0.638 1.542l3.338 3.338c0.136 0.134 0.318 0.21 0.509 0.211 0.096 0.001 0.191-0.018 0.279-0.054s0.169-0.090 0.237-0.157c0.068-0.068 0.122-0.148 0.159-0.237s0.056-0.184 0.056-0.28c0-0.096-0.019-0.191-0.056-0.28s-0.091-0.169-0.159-0.237l-3.338-3.331z"></path>
</symbol>
<symbol id="double-arrow-right-icon" viewBox="0 0 32 32">
<path fill="#eac645" style="fill: var(--color5, #eac645); stroke: var(--color6, #000)" stroke="#000" stroke-linejoin="miter" stroke-linecap="butt" stroke-miterlimit="4" stroke-width="0.7273" d="M31.636 16c0 8.636-7.001 15.636-15.636 15.636s-15.636-7.001-15.636-15.636c0-8.636 7.001-15.636 15.636-15.636s15.636 7.001 15.636 15.636z"></path>
<path fill="#000" style="fill: var(--color6, #000)" d="M19.927 16.516c0.068-0.068 0.122-0.148 0.159-0.237s0.056-0.184 0.056-0.28-0.019-0.191-0.056-0.28c-0.037-0.089-0.091-0.169-0.159-0.237l-3.338-3.331c-0.068-0.068-0.122-0.148-0.159-0.237s-0.056-0.184-0.056-0.28c0-0.096 0.019-0.191 0.056-0.28s0.091-0.169 0.159-0.237c0.136-0.135 0.321-0.211 0.513-0.211s0.376 0.076 0.513 0.211l3.338 3.338c0.409 0.409 0.638 0.964 0.638 1.542s-0.229 1.133-0.638 1.542l-3.338 3.338c-0.136 0.134-0.318 0.21-0.509 0.211-0.096 0.001-0.191-0.018-0.279-0.054s-0.169-0.090-0.237-0.157c-0.068-0.068-0.122-0.148-0.159-0.237s-0.056-0.184-0.056-0.28c0-0.096 0.019-0.191 0.056-0.28s0.091-0.169 0.159-0.237l3.338-3.331z"></path>
<path fill="#000" style="fill: var(--color6, #000)" d="M14.836 16.516c0.068-0.068 0.122-0.148 0.159-0.237s0.056-0.184 0.056-0.28-0.019-0.191-0.056-0.28c-0.037-0.089-0.091-0.169-0.159-0.237l-3.338-3.331c-0.068-0.068-0.122-0.148-0.159-0.237s-0.056-0.184-0.056-0.28c0-0.096 0.019-0.191 0.056-0.28s0.091-0.169 0.159-0.237c0.136-0.135 0.321-0.211 0.513-0.211s0.376 0.076 0.513 0.211l3.338 3.338c0.409 0.409 0.638 0.964 0.638 1.542s-0.229 1.133-0.638 1.542l-3.338 3.338c-0.136 0.134-0.318 0.21-0.509 0.211-0.096 0.001-0.191-0.018-0.279-0.054s-0.169-0.090-0.237-0.157c-0.068-0.068-0.122-0.148-0.159-0.237s-0.056-0.184-0.056-0.28c0-0.096 0.019-0.191 0.056-0.28s0.091-0.169 0.159-0.237l3.338-3.331z"></path>
</symbol>
<symbol id="logo" viewBox="0 0 32 32">
<path fill="#f6f6f6" style="fill: var(--color7, #f6f6f6)" d="M0 0l16.343 16.171 15.657 15.829v-32h-32z"></path>
<path fill="#f6f6f6" style="fill: var(--color7, #f6f6f6)" d="M4.457 4.229l11.943 11.829 11.257 11.486h-23.2v-23.314z"></path>
<path fill="#4f2ee8" style="fill: var(--color2, #4f2ee8)" d="M27.733 27.618l-11.943-11.829-11.257-11.486h23.2v23.314z"></path>
<path fill="#4f2ee8" style="fill: var(--color2, #4f2ee8)" d="M9.257 9.029l13.6 13.6h-13.6v-13.6z"></path>
<path fill="#f6f6f6" style="fill: var(--color7, #f6f6f6)" d="M9.257 9.029l13.6 13.6v-13.6h-13.6z"></path>
</symbol>
<symbol id="ukraine-emblem" viewBox="0 0 20 32">
<path d="M9.005 30.888c-1.738-1.262-2.991-3.156-3.414-5.351h-5.591v-23.117c2.991 1.443 5.153 4.599 5.388 7.876l0.846 6.493-0.407-0.045c-0.893 0-1.676 0.812-1.676 1.608 0 0.752 0.595 1.383 1.378 1.548l1.018 0.226c1.676-3.051 2.631-6.042 2.631-8.973 0-2.645-0.36-5.291-0.423-7.996 0-1.202 0.486-2.3 1.253-3.156 0.783 0.857 1.253 1.954 1.253 3.156 0 2.705-0.423 5.351-0.423 7.996 0 2.931 0.955 5.922 2.631 8.973l1.018-0.226c0.783-0.165 1.378-0.812 1.378-1.548 0-0.812-0.783-1.608-1.676-1.608l-0.423 0.060 0.846-6.493c0.423-3.277 2.396-6.448 5.388-7.876v23.117h-5.576c-0.423 2.179-1.613 4.148-3.414 5.351-0.423 0.286-0.783 0.631-1.018 1.097-0.219-0.466-0.579-0.812-0.987-1.112zM2.647 17.556c0.235-0.857 0.893-1.608 1.738-2.074l-0.658-5.351c-0.235-1.668-0.955-3.156-2.036-4.374v11.784h0.955v0.015zM5.466 23.929c0-0.812 0.125-1.548 0.298-2.3l-0.783-0.18c-1.143-0.346-2.036-1.203-2.334-2.3h-0.955v4.78h3.774zM9.178 23.929c0-0.977-0.783-1.834-1.801-1.954-0.172 0.631-0.298 1.263-0.298 1.954h2.099zM9.178 25.552h-1.864c0.298 1.263 0.955 2.42 1.864 3.397v-3.397zM11.809 20.547c-0.72-1.262-1.378-2.585-1.801-3.968-0.423 1.383-1.081 2.706-1.801 3.968 0.72 0.165 1.316 0.631 1.801 1.157 0.486-0.526 1.081-0.992 1.801-1.157zM12.952 23.929c0-0.691-0.125-1.323-0.297-1.954-1.018 0.12-1.801 0.977-1.801 1.954h2.099zM12.717 25.552h-1.864v3.397c0.908-0.992 1.566-2.134 1.864-3.397zM18.34 23.929v-4.78h-0.955c-0.298 1.097-1.206 1.954-2.334 2.3l-0.783 0.18c0.172 0.752 0.298 1.488 0.298 2.3h3.774zM18.34 17.556v-11.799c-1.081 1.202-1.864 2.706-2.036 4.374l-0.658 5.351c0.846 0.466 1.504 1.203 1.739 2.074h0.955z"></path>
</symbol>
<symbol id="user-icon" viewBox="0 0 32 32">
<path d="M5.333 29.333c0-2.829 1.124-5.542 3.124-7.543s4.713-3.124 7.542-3.124c2.829 0 5.542 1.124 7.542 3.124s3.124 4.714 3.124 7.543h-21.333zM16 17.333c-4.42 0-8-3.58-8-8s3.58-8 8-8c4.42 0 8 3.58 8 8s-3.58 8-8 8z"></path>
</symbol>
</defs>
</svg>
